<svg id="Layer_1" data-name="Layer 1" xmlns="http://www.w3.org/2000/svg" viewBox="0 0 200.5 200.5"><defs><style>.cls-1{fill:#fff;}.cls-2{fill:#1c2c4f;}.cls-3{fill:#21355d;}.cls-4{fill:#fde1ba;}.cls-5{fill:#fee3c6;}.cls-6{fill:#aaa49d;}.cls-7{fill:#aaa39d;}.cls-8{fill:#1a1a1a;}.cls-9{fill:none;stroke:#4c453c;stroke-miterlimit:10;}</style></defs><title>BRIGIDO-VETOR</title><path class="cls-1" d="M99.85,0.5h0A100.25,100.25,0,0,0-.41,100.75h0A100.27,100.27,0,0,0,59.1,192.37a36.87,36.87,0,0,1,36.75-33.92h10.42a36.88,36.88,0,0,1,36.65,32.84,100.26,100.26,0,0,0,57.17-90.55h0A100.25,100.25,0,0,0,99.85.5Z" transform="translate(0.41 -0.5)"/><path class="cls-2" d="M106.27,158.45h-5.08V201a99.81,99.81,0,0,0,41.74-9.69A36.88,36.88,0,0,0,106.27,158.45Z" transform="translate(0.41 -0.5)"/><path class="cls-3" d="M99.85,201h1.34v0Z" transform="translate(0.41 -0.5)"/><path class="cls-3" d="M101.18,158.45H95.85A36.87,36.87,0,0,0,59.1,192.37,99.89,99.89,0,0,0,99.85,201h0l1.34,0V158.45Z" transform="translate(0.41 -0.5)"/><path class="cls-4" d="M86.72,150.91h29.49a2.53,2.53,0,0,1,2.53,2.53V162a15.81,15.81,0,0,1-15.81,15.81H100A15.81,15.81,0,0,1,84.19,162v-8.52a2.53,2.53,0,0,1,2.53-2.53Z"/><path class="cls-5" d="M78.39,75.46A21.25,21.25,0,0,0,57.15,96.7v2.22c-4.91,2-8.33,6.32-8.33,11.38s3.44,9.44,8.37,11.4a44.24,44.24,0,0,0,42.5,42.2V75.46H78.39Z" transform="translate(0.41 -0.5)"/><path class="cls-4" d="M145,98.92V96.7a21.25,21.25,0,0,0-21.25-21.25H99V163.9c0.56,0,1.13,0,1.69,0h0a44.24,44.24,0,0,0,44.19-42.24c4.93-2,8.37-6.32,8.37-11.4S149.88,100.88,145,98.92Z" transform="translate(0.41 -0.5)"/><path class="cls-6" d="M145.12,85.21a2,2,0,0,0,1.49-2.11c0-7.75-20.08-20.26-44.69-20.1-23.7.15-43,12-44.35,19.79-1.1,2.48-1.73,6.56-2,10.68-0.39,5.45,1.76,15.86,3.28,15.9S63.9,91.3,64,85.21c0-.11,0-0.22,0-0.32,6.54-2.33,17.75-7.48,32.66-7.58,15.51-.1,31.3,5.3,40.85,7.37,0.4,6.74,3.71,23.39,5.17,23.35s3.68-10.45,3.28-15.9A53.93,53.93,0,0,0,145.12,85.21Z" transform="translate(0.41 -0.5)"/><path class="cls-7" d="M133.65,100.61c0.14-.73.37-0.68-0.27-2.5-1.15-3.26-6.37-3.86-10.53-4.09-6.58-.37-18.07-0.69-18.76,1.47l0,0.09c-0.54,1.8,1.73,3.38,4.22,2.95a90.06,90.06,0,0,1,13.92-.85C131,97.62,133.19,99.34,133.65,100.61Z" transform="translate(0.41 -0.5)"/><path class="cls-7" d="M68.47,100.61c-0.14-.73-0.37-0.68.27-2.5,1.15-3.26,6.37-3.86,10.53-4.09,6.58-.37,18.07-0.69,18.76,1.47l0,0.09c0.54,1.8-1.73,3.38-4.22,2.95a90.06,90.06,0,0,0-13.92-.85C71.16,97.62,68.93,99.34,68.47,100.61Z" transform="translate(0.41 -0.5)"/><path class="cls-8" d="M85,108.8c-5.92-.91-11.52,4.86-11.75,5.11l0.28,0.27s4-4.15,8.69-4.95a5.05,5.05,0,1,0,3.11,0,16.76,16.76,0,0,1,9,4.92l0.3-.25A17.14,17.14,0,0,0,85,108.8Z" transform="translate(0.41 -0.5)"/><rect class="cls-9" x="69.54" y="103.37" width="28.9" height="19.66" rx="7.61" ry="7.61"/><path class="cls-8" d="M120,109.47c-5.92-.91-11.52,4.86-11.75,5.11l0.28,0.27s4-4.15,8.69-4.95a5.05,5.05,0,1,0,3.11,0,16.76,16.76,0,0,1,9,4.92l0.3-.25A17.14,17.14,0,0,0,120,109.47Z" transform="translate(0.41 -0.5)"/><rect class="cls-9" x="104.49" y="103.37" width="28.9" height="19.66" rx="7.61" ry="7.61"/></svg>