<svg id="Layer_1" data-name="Layer 1" xmlns="http://www.w3.org/2000/svg" viewBox="0 0 199.95 199.95"><defs><style>.cls-1{fill:#794e9a;}.cls-2{fill:#fff;}.cls-3{fill:#7a7b7b;}.cls-4{fill:#a41916;}.cls-5{fill:#3f3f3f;}.cls-6{fill:#fee1bb;}.cls-7{fill:#fee3c6;}.cls-8{fill:#aaa39d;}.cls-9{fill:#210e0a;}.cls-10{fill:#676564;}</style></defs><title>EMMANUEL-VETOR</title><path class="cls-1" d="M100,200.58h0c2.41,0,4.79-.12,7.15-0.28H92.87C95.24,200.46,97.62,200.58,100,200.58Z" transform="translate(-0.05 -0.63)"/><path class="cls-2" d="M100,0.63h0a100,100,0,0,0-100,100h0a100,100,0,0,0,61.6,92.33l5.44-29.21a5.41,5.41,0,0,1,5.32-4.42h56.21a5.41,5.41,0,0,1,5.31,4.36l5.71,28.74A100,100,0,0,0,200,100.6h0A100,100,0,0,0,100,.63Z" transform="translate(-0.05 -0.63)"/><path class="cls-3" d="M128.62,159.3H72.42a5.41,5.41,0,0,0-5.32,4.42l-5.44,29.21a99.42,99.42,0,0,0,31.22,7.36h14.31a99.39,99.39,0,0,0,32.46-7.89l-5.71-28.74A5.41,5.41,0,0,0,128.62,159.3Z" transform="translate(-0.05 -0.63)"/><path class="cls-4" d="M118.69,159h9.93l-11.95,12H124s-23,9.33-23,15V159h17.69Z" transform="translate(-0.05 -0.63)"/><path class="cls-5" d="M101.44,186.09L101,186V159h28.56l-11.95,12h8.31l-1.59.49C124.12,171.59,102.17,180.66,101.44,186.09ZM101,159v25.23c4-4.81,16.46-12.23,21.19-13.23h-6.47l11.95-12H101Z" transform="translate(-0.05 -0.63)"/><path class="cls-4" d="M81.83,159.52l-9.92.09L84,171,76.6,171s22.61,9.22,23.43,14.92l-0.12-12.72-0.13-13.87Z" transform="translate(-0.05 -0.63)"/><path class="cls-5" d="M99.65,186c-0.78-5.42-23-14.53-23.2-14.62l-1.76-.72,8.31-.08L71,159.25l29.2-.28,0.26,27Zm-21.2-14.61c4.75,2,17.81,8,21.18,12.75l-0.23-24.4L72.86,160l12.05,11.34Z" transform="translate(-0.05 -0.63)"/><rect class="cls-5" x="99.57" y="172.02" width="2.14" height="27.64"/><path class="cls-6" d="M89.36,145.19h22.17a6.41,6.41,0,0,1,6.41,6.41v3.3a17.49,17.49,0,0,1-17.49,17.49h0A17.49,17.49,0,0,1,83,154.9v-3.3A6.41,6.41,0,0,1,89.36,145.19Z"/><path class="cls-7" d="M77.65,73.69A21.51,21.51,0,0,0,56.14,95.2v2.25c-5,2-8.43,6.4-8.43,11.52s3.48,9.56,8.48,11.54a44.79,44.79,0,0,0,43,42.73V73.69H77.65Z" transform="translate(-0.05 -0.63)"/><path class="cls-6" d="M145.07,97.45V95.2a21.51,21.51,0,0,0-21.51-21.51h-25v89.55c0.57,0,1.14,0,1.71,0h0A44.79,44.79,0,0,0,145,120.51c5-2,8.48-6.4,8.48-11.54S150,99.43,145.07,97.45Z" transform="translate(-0.05 -0.63)"/><path class="cls-8" d="M55.21,97.77v13.14s3.86-21.26,10-25.12c5.57-3.48,54.8-1,64.52-.48a18.62,18.62,0,0,0,2.27-.07c1.73-.12,6.92,1.81,13.2,25.67,0,0,1.93-7.15,0-21.55s5.8-10.92,5.8-10.92-4.64-5-7.73-3.48c0,0,.77-10-3.09-10,0,0-.77,9.54-5.41,9,0,0-10.43-9.79-3.09-13.66,0,0-6.13-1.16-4.8,9.66a13.35,13.35,0,0,0-9.88-9.7s4.64,7-1.16,9.7c0,0-9.66-8.5-9.28-16.62,0,0-6.18,13.14-3.48,17a9.64,9.64,0,0,1-4-10.43s-2.47,7.73,0,10.82c0,0-1-8.89-8.74-7.73,0,0,8.12,3.48,4.64,7.73,0,0-6.18-2.32-8.89-4.64,0,0-1.55,5.41.39,5.8,0,0-5.8-.77-7-9.28,0,0-3.09,6.18-.77,9.66,0,0-9.17-9.28-5.74-14.69,0,0-5.46,9.66-3.53,13.14a11.11,11.11,0,0,0-10,0s5,1.55,5.41,6.57c0,0-8.12.65-11.21-3.35,0,0-.39,5.28,3.48,8.18Z" transform="translate(-0.05 -0.63)"/><path class="cls-8" d="M61.83,113.25S62,105,76.88,105c8.22,0,12.61.52,14.89,1,2.67,0.54,5.08-1.54,4.48-3.88l0-.12c-0.76-2.81-13-2.29-20.08-1.76a16.21,16.21,0,0,0-11.22,5.42A12.33,12.33,0,0,0,61.83,113.25Z" transform="translate(-0.05 -0.63)"/><path class="cls-8" d="M138.34,113.26s-0.28-8.28-15.11-8.17c-8.22.07-12.61,0.62-14.88,1.1-2.66.56-5.09-1.5-4.51-3.85l0-.12c0.74-2.82,13-2.4,20.07-1.92a16.21,16.21,0,0,1,11.26,5.33A12.33,12.33,0,0,1,138.34,113.26Z" transform="translate(-0.05 -0.63)"/><path class="cls-9" d="M83.43,111C77,110,71,116.28,70.7,116.55l0.3,0.29c0.05-.05,4.37-4.5,9.42-5.36a5.48,5.48,0,1,0,3.37,0,18.17,18.17,0,0,1,9.76,5.33l0.32-.27A18.57,18.57,0,0,0,83.43,111Z" transform="translate(-0.05 -0.63)"/><path class="cls-9" d="M117.69,111c-6.41-1-12.48,5.27-12.74,5.53l0.3,0.29c0.05-.05,4.37-4.5,9.42-5.36a5.48,5.48,0,1,0,3.37,0,18.17,18.17,0,0,1,9.76,5.33l0.32-.27A18.57,18.57,0,0,0,117.69,111Z" transform="translate(-0.05 -0.63)"/><circle class="cls-10" cx="100.64" cy="187.73" r="0.67"/><circle class="cls-10" cx="100.64" cy="182.45" r="0.67"/><circle class="cls-10" cx="100.64" cy="192.48" r="0.67"/><circle class="cls-10" cx="100.64" cy="197.23" r="0.67"/></svg>