<svg id="Layer_1" data-name="Layer 1" xmlns="http://www.w3.org/2000/svg" viewBox="0 0 199.42 199.42"><defs><style>.cls-1{fill:#fff;}.cls-2{fill:#b78655;}.cls-3{fill:#fde1ba;}.cls-4{fill:#fee3c6;}.cls-5{fill:#a9a29b;}.cls-6{fill:#1a1a1a;}.cls-7{fill:#aaa39d;}.cls-8{fill:#efc88e;}</style></defs><title>ILSON-VETOR</title><path class="cls-1" d="M100.52,0.58h0A99.71,99.71,0,0,0,.81,100.29h0A99.73,99.73,0,0,0,62.29,192.4v-0.72a27.53,27.53,0,0,1,27.53-27.53h21.4a27.53,27.53,0,0,1,27.53,27.53v0.72a99.73,99.73,0,0,0,61.48-92.11h0A99.71,99.71,0,0,0,100.52.58Z" transform="translate(-0.81 -0.58)"/><path class="cls-2" d="M111.22,164.15H89.82a27.53,27.53,0,0,0-27.53,27.53v0.72a99.4,99.4,0,0,0,38.23,7.6h0a99.4,99.4,0,0,0,38.23-7.6v-0.72A27.53,27.53,0,0,0,111.22,164.15Z" transform="translate(-0.81 -0.58)"/><path class="cls-3" d="M87.83,149.05h23.55a4.5,4.5,0,0,1,4.5,4.5v4.54a16.27,16.27,0,0,1-16.27,16.27h0a16.27,16.27,0,0,1-16.27-16.27v-4.54a4.5,4.5,0,0,1,4.5-4.5Z"/><path class="cls-4" d="M79.16,82.52a20,20,0,0,0-20,20v2.09c-4.63,1.85-7.85,6-7.85,10.72s3.24,8.9,7.89,10.74a41.68,41.68,0,0,0,40,39.76V82.52H79.16Z" transform="translate(-0.81 -0.58)"/><path class="cls-3" d="M141.89,104.63v-2.09a20,20,0,0,0-20-20H98.62v83.33c0.53,0,1.06,0,1.59,0h0a41.68,41.68,0,0,0,41.64-39.8c4.65-1.84,7.89-6,7.89-10.74S146.52,106.48,141.89,104.63Z" transform="translate(-0.81 -0.58)"/><path class="cls-5" d="M140.85,90.91l-1.55-1.66a6.09,6.09,0,0,1-3,.46c-1.49-.13-3.08-1.27-3-3a10.71,10.71,0,0,1,.71-3.11l-1.27-1.31a2.69,2.69,0,0,1-1.37.19S130.8,81.93,130,81c-0.48.12-1,.24-1.45,0.34a3,3,0,0,1-2.47-5.25q-0.78-.64-1.58-1.25a3.37,3.37,0,0,1-.36-0.33,17.43,17.43,0,0,0,.06,4.35,12.27,12.27,0,0,0-9.08-8.91s4.26,6.43-1.07,8.91c0,0-8.88-7.81-8.52-15.27,0,0-5.68,12.08-3.2,15.63a8.86,8.86,0,0,1-3.69-9.59,22.46,22.46,0,0,0-1,6.67,6.27,6.27,0,0,0-7-3.83s7.46,3.2,4.26,7.1c0,0-5.68-2.13-8.17-4.26,0,0-1.42,5,.36,5.33,0,0-5.33-.71-6.39-8.52,0,0-2.84,5.68-.71,8.88,0,0-7.89-8-5.55-13a41.14,41.14,0,0,0-2.49,5.62,2.37,2.37,0,0,1-.09,1.23c-0.2.56-.42,1.11-0.66,1.65a4.94,4.94,0,0,0,.27,3.08,8.26,8.26,0,0,0-1.5-.62c-0.17.3-.35,0.61-0.54,0.9,3.08-1.31,5.65,3.44,2.55,5.32a60.74,60.74,0,0,1-12,6.08l-1.63,13.18V116.5S61.82,97,67.5,93.41c5.12-3.2,50.37-.92,59.3-0.44a17.11,17.11,0,0,0,2.09-.07c1.59-.11,6.36,1.66,12.14,23.59,0,0,1.78-6.57,0-19.8A23,23,0,0,1,140.85,90.91Z" transform="translate(-0.81 -0.58)"/><path class="cls-6" d="M84.8,117.25c-6-.92-11.61,4.9-11.85,5.15l0.28,0.27s4.06-4.19,8.77-5a5.1,5.1,0,1,0,3.14,0,16.9,16.9,0,0,1,9.08,5l0.3-.25A17.28,17.28,0,0,0,84.8,117.25Z" transform="translate(-0.81 -0.58)"/><path class="cls-6" d="M116.67,117.25c-6-.92-11.61,4.9-11.85,5.15l0.28,0.27s4.06-4.19,8.77-5a5.1,5.1,0,1,0,3.14,0,16.9,16.9,0,0,1,9.08,5l0.3-.25A17.28,17.28,0,0,0,116.67,117.25Z" transform="translate(-0.81 -0.58)"/><path class="cls-7" d="M65.24,119s0.2-7.64,13.87-7.64c7.58,0,11.63.48,13.73,0.91,2.46,0.5,4.68-1.42,4.13-3.58l0-.11c-0.7-2.59-12-2.11-18.52-1.62a15,15,0,0,0-10.35,5A11.37,11.37,0,0,0,65.24,119Z" transform="translate(-0.81 -0.58)"/><path class="cls-7" d="M135.8,119s-0.26-7.64-13.93-7.53c-7.58.06-11.63,0.57-13.73,1-2.45.52-4.69-1.38-4.16-3.55l0-.11c0.68-2.6,12-2.21,18.51-1.77A15,15,0,0,1,132.9,112,11.37,11.37,0,0,1,135.8,119Z" transform="translate(-0.81 -0.58)"/><path class="cls-2" d="M138.77,87.08c-3.06,1-45.63,14-77.17-.06l-1.12,4.32c-0.34,1.3.54,2.62,2.15,3.17,9,3.15,39.6,12,74.27,1.94a3.71,3.71,0,0,0,3-3.24,50.16,50.16,0,0,1,.24-5.1A3.71,3.71,0,0,1,138.77,87.08Z" transform="translate(-0.81 -0.58)"/><path class="cls-8" d="M136.29,78.27c-5.13-12.94-14.4-22.18-20.66-22.48-3.76-.18-7.94,1.5-11.21,3.24a11.38,11.38,0,0,1-10.63-.28,32.36,32.36,0,0,0-8.67-3.37C72.2,52.07,66,67.81,63.33,78.27A78,78,0,0,0,61.6,87C94.34,101.61,139,87,139,87A54.6,54.6,0,0,0,136.29,78.27Z" transform="translate(-0.81 -0.58)"/><path class="cls-8" d="M154.39,92.18a121.82,121.82,0,0,0-14.22-4.29,45.84,45.84,0,0,0-.27,5.32,3.71,3.71,0,0,1-3,3.24c-34.68,10-65.23,1.21-74.27-1.94C61,94,60.15,92.65,60.48,91.34L61.6,87c-3.35.65-6.28,1.3-8.86,2-32.14,8.14-8.13,16.24-8.13,16.24S81,118.08,139,109.46C175.9,104,166.25,96.72,154.39,92.18Z" transform="translate(-0.81 -0.58)"/></svg>