<svg id="Layer_1" data-name="Layer 1" xmlns="http://www.w3.org/2000/svg" viewBox="0 0 200.22 200.22"><defs><style>.cls-1{fill:#fff;}.cls-2{fill:#26674d;}.cls-3{fill:#184935;}.cls-4{fill:#1c5c3f;}.cls-5{fill:#fee1bb;}.cls-6{fill:#fee3c6;}.cls-7{fill:none;stroke:#c6bcb6;stroke-miterlimit:10;stroke-width:2px;}.cls-8{fill:#000100;}</style></defs><title>LUCIANO-VETOR</title><path class="cls-1" d="M99.79-.13h0A100.11,100.11,0,0,0-.32,100h0A99.93,99.93,0,0,0,38.06,178.8c7.47-12.42,22.69-20.93,40.26-20.93h42.93c17.57,0,32.79,8.51,40.26,20.93A99.93,99.93,0,0,0,199.9,100h0A100.11,100.11,0,0,0,99.79-.13Z" transform="translate(0.32 0.13)"/><path class="cls-2" d="M99.24,200.09h0Z" transform="translate(0.32 0.13)"/><path class="cls-2" d="M121.26,157.87h-22v42.21h0.55a99.68,99.68,0,0,0,61.73-21.29C154.05,166.38,138.83,157.87,121.26,157.87Z" transform="translate(0.32 0.13)"/><path class="cls-3" d="M99.24,157.87H78.33c-17.57,0-32.79,8.51-40.26,20.93a99.67,99.67,0,0,0,61.17,21.29V157.87Z" transform="translate(0.32 0.13)"/><path class="cls-4" d="M81.6,156h0a19.55,19.55,0,0,0,17.91,19.48V156H81.6Z" transform="translate(0.32 0.13)"/><path class="cls-3" d="M99.51,156v19.48c0.54,0,1.09.07,1.64,0.07h0A19.55,19.55,0,0,0,120.7,156H99.51Z" transform="translate(0.32 0.13)"/><path class="cls-5" d="M86.78,146.15h29.34a3,3,0,0,1,3,3v6.82a17.65,17.65,0,0,1-17.65,17.65h0a17.65,17.65,0,0,1-17.65-17.65v-6.82A3,3,0,0,1,86.78,146.15Z"/><path class="cls-6" d="M78,73.23A21.71,21.71,0,0,0,56.32,94.94v2.27c-5,2-8.51,6.45-8.51,11.63s3.51,9.65,8.56,11.65A45.2,45.2,0,0,0,99.79,163.6V73.23H78Z" transform="translate(0.32 0.13)"/><path class="cls-5" d="M146.11,97.21V94.94A21.71,21.71,0,0,0,124.4,73.23H99.18V163.6c0.57,0,1.15,0,1.73,0h0a45.2,45.2,0,0,0,45.16-43.16c5-2,8.56-6.46,8.56-11.65S151.13,99.21,146.11,97.21Z" transform="translate(0.32 0.13)"/><path class="cls-7" d="M70.38,104.65H91.82a5.47,5.47,0,0,1,5.47,5.47v2.48A11.27,11.27,0,0,1,86,123.86H76.18a11.27,11.27,0,0,1-11.27-11.27v-2.48a5.47,5.47,0,0,1,5.47-5.47Z"/><path class="cls-7" d="M111.2,104.65h21.44a5.47,5.47,0,0,1,5.47,5.47v2.48a11.27,11.27,0,0,1-11.27,11.27H117a11.27,11.27,0,0,1-11.27-11.27v-2.48a5.47,5.47,0,0,1,5.47-5.47Z"/><path class="cls-7" d="M93.12,114s2.4-2.71,8-2.71c5.48,0,7.49,2.25,8,2.71" transform="translate(0.32 0.13)"/><path class="cls-8" d="M62.28,107.91s0.22-8.36,15.18-8.36c8.3,0,12.73.53,15,1,2.69,0.55,5.12-1.55,4.52-3.92l0-.12c-0.77-2.84-13.17-2.31-20.26-1.77a16.36,16.36,0,0,0-11.32,5.47A12.44,12.44,0,0,0,62.28,107.91Z" transform="translate(0.32 0.13)"/><path class="cls-8" d="M139.49,107.92s-0.28-8.36-15.25-8.24c-8.3.07-12.72,0.63-15,1.11-2.69.57-5.13-1.51-4.55-3.88l0-.12c0.75-2.84,13.15-2.42,20.25-1.93a16.36,16.36,0,0,1,11.36,5.38A12.44,12.44,0,0,1,139.49,107.92Z" transform="translate(0.32 0.13)"/><path class="cls-8" d="M113.45,57.09H88.2C70.25,57.09,55.7,68.7,55.7,83v21.5c1-7.4,15.71-23.78,35.06-25.46A5.67,5.67,0,0,1,96,81.54h0a4,4,0,0,0,6.75,0l0.11-.18A5.66,5.66,0,0,1,108,78.8C128.38,80,145.18,97,146.94,104.52l-1-21.5C145.95,68.7,131.4,57.09,113.45,57.09Z" transform="translate(0.32 0.13)"/><path class="cls-8" d="M146.05,94.33a4.94,4.94,0,0,0-.1-0.6v0.6h0.1Z" transform="translate(0.32 0.13)"/><path class="cls-8" d="M88.67,108.81A13,13,0,0,0,81.92,107H79.63a13.15,13.15,0,0,0-5.91,1.35l-2,1,0.15,0.28,2-1a11.44,11.44,0,0,1,2.31-.92,1.09,1.09,0,0,0-.18.23v0.48A4.76,4.76,0,0,0,80.49,113h0.12C83,113,84,110.75,84,108.38V107.9a2.83,2.83,0,0,0,.33-0.34,13.9,13.9,0,0,1,4,1.49l1.09,0.59,0.22-.26Z" transform="translate(0.32 0.13)"/><path class="cls-8" d="M129.6,108.79a13,13,0,0,0-6.75-1.79h-2.28a13.14,13.14,0,0,0-5.91,1.33l-2,1,0.15,0.28,2-1a16.58,16.58,0,0,1,2.85-.93c0,0.07.35,0.14,0.35,0.22v0.48c0,2.37,1.13,4.29,3.5,4.29s3.5-1.92,3.5-4.29v-0.48a2.26,2.26,0,0,0,.29-0.34,13.79,13.79,0,0,1,3.94,1.49l1.08,0.59,0.22-.25Z" transform="translate(0.32 0.13)"/></svg>