<svg id="Layer_1" data-name="Layer 1" xmlns="http://www.w3.org/2000/svg" viewBox="0 0 199.57 199.57"><defs><style>.cls-1{fill:#fff;}.cls-2{fill:#603f26;}.cls-3{fill:#f9d6af;}.cls-4{fill:#f9d9b2;}.cls-5{fill:#1c1815;}.cls-6{fill:#2d251f;}.cls-7{fill:#3a3531;}.cls-8{fill:#49433f;}.cls-9{fill:#352f2a;}.cls-10{fill:#26201b;}</style></defs><title>MARCIA-VETOR</title><path class="cls-1" d="M100.22,0h0A99.78,99.78,0,0,0,.43,99.78h0a99.82,99.82,0,0,0,66.36,94l1.93-9.41a17.92,17.92,0,0,0,.35-2.54,16,16,0,0,1,16-15.05h37.76a16,16,0,0,1,15.94,14.47,24.79,24.79,0,0,0,.56,3.54l1.5,6.12A99.8,99.8,0,0,0,200,99.79h0A99.78,99.78,0,0,0,100.22,0Z" transform="translate(-0.43)"/><path d="M138.76,181.29a16,16,0,0,0-15.94-14.47H85.06a16,16,0,0,0-16,15.05,17.92,17.92,0,0,1-.35,2.54l-1.93,9.41a99.6,99.6,0,0,0,33.43,5.74h0A99.43,99.43,0,0,0,140.82,191l-1.5-6.12A24.79,24.79,0,0,1,138.76,181.29Z" transform="translate(-0.43)"/><path class="cls-2" d="M120.86,122.54l0.12,0a3.57,3.57,0,0,0,2.17-1.28l0-.1c-0.42.78-2.94,1.45-3,1.46Z" transform="translate(-0.43)"/><path class="cls-2" d="M119.79,121.88l0.1-.06a3.57,3.57,0,0,0,1.62-1.93v-0.1c-0.13.88-2.29,2.35-2.3,2.35Z" transform="translate(-0.43)"/><path class="cls-2" d="M122.25,123.1h0.12a3.57,3.57,0,0,0,2.33-1l0-.09c-0.53.71-3.11,1-3.13,1Z" transform="translate(-0.43)"/><path d="M90.33,168.52" transform="translate(-0.43)"/><path class="cls-3" d="M102.44,191.33a2.25,2.25,0,0,1-4,0l-5.92-11.73-7.93-15.7h31.7l-7.93,15.7Z" transform="translate(-0.43)"/><path class="cls-4" d="M147.58,132.71a8.36,8.36,0,0,0-7-8.23c0.32-6.81.51-12.66,0.32-14,0,0-.94-17.92-14.9-17.92A61.18,61.18,0,0,0,111.2,95.7c-7.46,2.67-10.76,2.42-10.76,2.42s-3.3.26-10.76-2.42a61.18,61.18,0,0,0-14.81-3.14c-14,0-14.9,17.92-14.9,17.92-0.19,1.34,0,7.19.31,14a8.35,8.35,0,0,0,.88,16.58l0.15,2.61a16,16,0,0,0,5.35,11A93.21,93.21,0,0,0,84,166.91c2.82,1.51,5.18,2.74,7.15,3.74a20.46,20.46,0,0,0,18.56,0c2-1,4.33-2.23,7.15-3.74a93.21,93.21,0,0,0,17.35-12.22,16,16,0,0,0,5.35-11l0.15-2.62A8.36,8.36,0,0,0,147.58,132.71Z" transform="translate(-0.43)"/><path class="cls-2" d="M76.39,122.54l-0.12,0a3.57,3.57,0,0,1-2.17-1.28l0-.1c0.42,0.78,2.94,1.45,3,1.46Z" transform="translate(-0.43)"/><path class="cls-2" d="M77.46,121.88l-0.1-.06a3.57,3.57,0,0,1-1.62-1.93v-0.1c0.13,0.88,2.29,2.35,2.3,2.35Z" transform="translate(-0.43)"/><path class="cls-2" d="M75,123.1H74.88a3.57,3.57,0,0,1-2.33-1l0-.09c0.53,0.71,3.11,1,3.13,1Z" transform="translate(-0.43)"/><path class="cls-5" d="M67.73,116.42s3.16-9.57,14.76-6.82c6.43,1.52,9.26,2.15,11,2.81,2.05,0.77,3.64,1.93,3.71-.45q0-.06,0-0.12c0-2.86-9.68-4.63-15.3-5.41a12.28,12.28,0,0,0-10,3.17A13.93,13.93,0,0,0,67.73,116.42Z" transform="translate(-0.43)"/><path class="cls-5" d="M133.17,116.42s-3.16-9.57-14.76-6.82c-6.43,1.52-9.26,2.15-11,2.81-2.05.77-3.64,1.93-3.71-.45q0-.06,0-0.12c0-2.86,9.68-4.63,15.3-5.41a12.28,12.28,0,0,1,10,3.17A13.93,13.93,0,0,1,133.17,116.42Z" transform="translate(-0.43)"/><path class="cls-5" d="M93.56,124.18c-10.4-8.06-20.83.74-20.95,0.84l-1.24.88a25.57,25.57,0,0,1,9.16-4.39,6.86,6.86,0,0,0-.38,8.14A16.21,16.21,0,0,1,76.68,128h0a13.41,13.41,0,0,0,7.76,2.88,10.32,10.32,0,0,0,3.71-.68h0a16.29,16.29,0,0,0,3.72-2h0A26.39,26.39,0,0,1,89,129.4a5.57,5.57,0,0,0,1.16-2.83,8,8,0,0,0-1.88-5.06,14.41,14.41,0,0,1,5.15,2.58Z" transform="translate(-0.43)"/><path class="cls-5" d="M91.32,119.21h0c-7.91-2.72-16.63,1.71-16.71,1.75h0.48C75.17,120.92,83.62,116.56,91.32,119.21Z" transform="translate(-0.43)"/><path class="cls-5" d="M79.15,121.51l-0.12,0A3.57,3.57,0,0,1,77,120l0-.1c0.36,0.81,2.83,1.65,2.84,1.66Z" transform="translate(-0.43)"/><path class="cls-5" d="M79.92,121.2l-0.12,0a3.57,3.57,0,0,1-2.08-1.43l0-.1c0.36,0.81,2.83,1.65,2.84,1.66Z" transform="translate(-0.43)"/><path class="cls-5" d="M87.34,121.34l-0.11,0a3.57,3.57,0,0,1-1.77-1.8v-0.1c0.2,0.86,2.46,2.16,2.47,2.17Z" transform="translate(-0.43)"/><path class="cls-5" d="M85.54,120.81l-0.11,0a3.57,3.57,0,0,1-1.77-1.8v-0.1c0.2,0.86,2.46,2.16,2.47,2.17Z" transform="translate(-0.43)"/><path class="cls-5" d="M83.3,120.82l-0.08-.08a3.57,3.57,0,0,1-1-2.31l0-.09c-0.12.88,1.53,2.89,1.54,2.91Z" transform="translate(-0.43)"/><path class="cls-5" d="M82.42,121.26l-0.08-.08a3.57,3.57,0,0,1-1-2.31l0-.09c-0.12.88,1.53,2.89,1.54,2.91Z" transform="translate(-0.43)"/><path class="cls-5" d="M81.54,121l-0.11,0a3.57,3.57,0,0,1-1.93-1.63v-0.1c0.28,0.84,2.65,1.93,2.66,1.93Z" transform="translate(-0.43)"/><path class="cls-5" d="M103.69,124.18c10.4-8.06,20.83.74,20.95,0.84l1.24,0.88a25.57,25.57,0,0,0-9.16-4.39,6.86,6.86,0,0,1,.38,8.14,16.21,16.21,0,0,0,3.48-1.62h0a13.41,13.41,0,0,1-7.76,2.88,10.32,10.32,0,0,1-3.71-.68h0a16.29,16.29,0,0,1-3.72-2h0a26.39,26.39,0,0,0,2.87,1.2,5.57,5.57,0,0,1-1.16-2.83,8,8,0,0,1,1.88-5.06,14.41,14.41,0,0,0-5.15,2.58Z" transform="translate(-0.43)"/><path class="cls-5" d="M105.93,119.21h0c7.91-2.72,16.63,1.71,16.71,1.75h-0.48C122.08,120.92,113.63,116.56,105.93,119.21Z" transform="translate(-0.43)"/><path class="cls-5" d="M118.1,121.51l0.12,0a3.57,3.57,0,0,0,2.08-1.43l0-.1c-0.36.81-2.83,1.65-2.84,1.66Z" transform="translate(-0.43)"/><path class="cls-5" d="M117.33,121.2l0.12,0a3.57,3.57,0,0,0,2.08-1.43l0-.1c-0.36.81-2.83,1.65-2.84,1.66Z" transform="translate(-0.43)"/><path class="cls-5" d="M109.91,121.34l0.11,0a3.57,3.57,0,0,0,1.77-1.8v-0.1c-0.2.86-2.46,2.16-2.47,2.17Z" transform="translate(-0.43)"/><path class="cls-5" d="M111.71,120.81l0.11,0a3.57,3.57,0,0,0,1.77-1.8v-0.1c-0.2.86-2.46,2.16-2.47,2.17Z" transform="translate(-0.43)"/><path class="cls-5" d="M113.95,120.82l0.08-.08a3.57,3.57,0,0,0,1-2.31l0-.09c0.12,0.88-1.53,2.89-1.54,2.91Z" transform="translate(-0.43)"/><path class="cls-5" d="M114.83,121.26l0.08-.08a3.57,3.57,0,0,0,1-2.31l0-.09c0.12,0.88-1.53,2.89-1.54,2.91Z" transform="translate(-0.43)"/><path class="cls-5" d="M115.71,121l0.11,0a3.57,3.57,0,0,0,1.93-1.63v-0.1c-0.28.84-2.65,1.93-2.66,1.93Z" transform="translate(-0.43)"/><path class="cls-5" d="M60,111.24s0.94-17.92,14.9-17.92a61.18,61.18,0,0,1,14.81,3.14c7.46,2.67,10.76,2.42,10.76,2.42s3.3,0.26,10.76-2.42A61.18,61.18,0,0,1,126,93.32c14,0,14.9,17.92,14.9,17.92,0.19,1.31,0,7-.3,13.61h0.89V96a25.6,25.6,0,0,0-25.6-25.6H85A25.6,25.6,0,0,0,59.36,96v28.81h0.91C60,118.22,59.78,112.55,60,111.24Z" transform="translate(-0.43)"/><path class="cls-5" d="M71.93,88S64.7,77.66,60.7,68.83a66.54,66.54,0,0,0,12.24,12.3C80.57,87,83.7,91,83.7,91" transform="translate(-0.43)"/><path class="cls-6" d="M61.6,86.43S51.46,79.79,46.3,71.58A66.54,66.54,0,0,0,60.1,82.11c8.35,4.79,12,8.29,12,8.29" transform="translate(-0.43)"/><path class="cls-7" d="M67.08,89.1s-8.56-9.24-13.72-17.45a66.54,66.54,0,0,0,13.8,10.53c8.35,4.79,12,8.29,12,8.29" transform="translate(-0.43)"/><path class="cls-8" d="M60.19,91.18s-8.56-9.24-13.72-17.45a66.54,66.54,0,0,0,13.8,10.53c8.35,4.79,12,8.29,12,8.29" transform="translate(-0.43)"/><path class="cls-7" d="M88.77,76s-8.56-9.24-13.72-17.45A66.54,66.54,0,0,0,88.85,69.1c8.35,4.79,12,8.29,12,8.29" transform="translate(-0.43)"/><path class="cls-9" d="M98,86.54S89.4,77.3,84.24,69.09A66.54,66.54,0,0,0,98,79.62c8.35,4.79,12,8.29,12,8.29" transform="translate(-0.43)"/><path class="cls-9" d="M90.75,94.12S82.19,84.88,77,76.67A66.54,66.54,0,0,0,90.83,87.2c8.35,4.79,12,8.29,12,8.29" transform="translate(-0.43)"/><path class="cls-10" d="M80.44,87.56S68.68,74.88,61.6,63.6A91.38,91.38,0,0,0,80.55,78.06C92,84.64,97,89.45,97,89.45" transform="translate(-0.43)"/><path class="cls-6" d="M93,87.71S81.29,75,74.2,63.74A91.38,91.38,0,0,0,93.15,78.21c11.47,6.58,16.46,11.38,16.46,11.38" transform="translate(-0.43)"/><path class="cls-5" d="M102,86.33s-11.76-12.69-18.84-24A91.38,91.38,0,0,0,102.1,76.83c11.47,6.58,16.46,11.38,16.46,11.38" transform="translate(-0.43)"/><path class="cls-6" d="M104.19,84s-4-13.47-5-24.3a70.28,70.28,0,0,0,8.7,17.23c6.09,8.79,8,14.08,8,14.08" transform="translate(-0.43)"/><path class="cls-10" d="M112.72,84.12s-4-13.47-5-24.3A70.28,70.28,0,0,0,116.42,77c6.09,8.79,8,14.08,8,14.08" transform="translate(-0.43)"/><path class="cls-7" d="M118.31,89.64S110.08,78,105.55,68a74.16,74.16,0,0,0,13.94,13.85c8.69,6.59,12.25,11.06,12.25,11.06" transform="translate(-0.43)"/><path class="cls-5" d="M126,83c-2.88-.11-18.15-12-12.76-21.66a74.16,74.16,0,0,0,13.94,13.85c8.69,6.59,2.22,13.07,2.22,13.07" transform="translate(-0.43)"/><path class="cls-5" d="M82.13,84.76S73.9,73.11,69.37,63.1A74.16,74.16,0,0,0,83.31,76.94C92,83.53,95.56,88,95.56,88" transform="translate(-0.43)"/><path class="cls-8" d="M130.82,84.85c-3.63.08-14.15-11.51-12.76-21.66A74.16,74.16,0,0,0,132,77c8.69,6.59,1.61,10.88,1.61,10.88" transform="translate(-0.43)"/><path class="cls-8" d="M112.95,80.86s-8.22-11.65-12.76-21.66a74.16,74.16,0,0,0,13.94,13.85c8.69,6.59,12.25,11.06,12.25,11.06" transform="translate(-0.43)"/><path class="cls-5" d="M91.57,92.36S83.35,80.71,78.81,70.69A74.16,74.16,0,0,0,92.76,84.54C101.44,91.13,105,95.6,105,95.6" transform="translate(-0.43)"/><path class="cls-5" d="M128.05,90.16s-7.73-11.58-12-21.55a71,71,0,0,0,13.16,13.74c8.21,6.52,11.57,11,11.57,11" transform="translate(-0.43)"/><path class="cls-6" d="M86.29,93s-8.56-9.24-13.72-17.45a66.54,66.54,0,0,0,13.8,10.53c8.35,4.79,12,8.29,12,8.29" transform="translate(-0.43)"/><path class="cls-5" d="M59.44,94s-3.49,15.28,0,30.43" transform="translate(-0.43)"/><path class="cls-5" d="M141.51,124.85s1.61-30.32-.72-34.84" transform="translate(-0.43)"/><path class="cls-5" d="M113.74,87.71S105.52,76.06,101,66A74.16,74.16,0,0,0,114.93,79.9C123.62,86.49,127.18,91,127.18,91" transform="translate(-0.43)"/><path class="cls-10" d="M107.17,87.83S98.95,76.18,94.41,66.17A74.16,74.16,0,0,0,108.36,80C117,86.6,120.6,91.07,120.6,91.07" transform="translate(-0.43)"/><path class="cls-8" d="M103.88,90.16S95.66,78.51,91.12,68.5a74.16,74.16,0,0,0,13.94,13.85c8.69,6.59,12.25,11.06,12.25,11.06" transform="translate(-0.43)"/></svg>