<?xml version="1.0" encoding="utf-8"?>
<!-- Generator: Adobe Illustrator 19.2.1, SVG Export Plug-In . SVG Version: 6.00 Build 0)  -->
<svg version="1.1" id="Layer_1" xmlns="http://www.w3.org/2000/svg" xmlns:xlink="http://www.w3.org/1999/xlink" x="0px" y="0px"
	 viewBox="0 0 960 560" style="enable-background:new 0 0 960 560;" xml:space="preserve">
<style type="text/css">
	.st0{fill:#737373;}
</style>
<g>
	<path class="st0" d="M678.2,280.4c-0.1,109.2-89,198-198.1,197.8c-109.1-0.1-197.9-89.1-197.7-198.1
		c0.2-109.2,89.1-197.9,198.2-197.7C589.6,82.6,678.3,171.4,678.2,280.4z M312.8,280.3c0.1,92.2,73.7,166.2,164.9,167.4
		c93.9,1.3,168.4-73.2,170-164.3c1.6-94.6-73.6-169.3-164.8-170.6C388.3,111.5,312.8,187.5,312.8,280.3z"/>
	<path class="st0" d="M561,241.8c-9.1,4.2-18.1,8.4-27.4,12.7c-0.3-0.5-0.5-1-0.8-1.4c-8.6-16.5-21.7-27.6-39.8-32
		c-24.4-6-52.2,3.2-66.4,27c-6.4,10.7-9.1,22.4-8.6,34.8c0.6,13.7,4.9,26.1,13.7,36.8c9.3,11.3,21.4,18,35.7,20.5
		c14,2.5,27.5,0.6,40-6.3c11-6,19.3-14.8,25.1-26c0.3-0.5,0.5-1,0.7-1.5c0-0.1,0.1-0.1,0.4-0.3c9,4.2,18.1,8.4,27.2,12.7
		c-13.6,30.8-49.4,57.9-93.6,52.1c-45.7-5.9-79.1-43.5-79.9-89.2c-0.8-44.9,31.6-84,75.8-91.4C508.8,182.6,546.4,209.4,561,241.8z"
		/>
</g>
</svg>
