<?xml version="1.0" encoding="utf-8"?>
<!-- Generator: Adobe Illustrator 19.2.1, SVG Export Plug-In . SVG Version: 6.00 Build 0)  -->
<svg version="1.1" id="Layer_1" xmlns="http://www.w3.org/2000/svg" xmlns:xlink="http://www.w3.org/1999/xlink" x="0px" y="0px"
	 viewBox="0 0 841.9 1190.6" style="enable-background:new 0 0 841.9 1190.6;" xml:space="preserve">
<style type="text/css">
	.st0{fill:#FFFFFF;}
</style>
<g>
	<path class="st0" d="M396.6,587.4c1-1.3,1.5-2.2,2.2-2.9c42.3-42.1,84.7-84.2,127.1-126.3c8.9-8.9,21.1-10.4,31-4.1
		c12.9,8.3,14.7,26,3.7,37c-14.8,14.9-29.8,29.6-44.7,44.4c-33.7,33.5-67.5,67.1-101.2,100.6c-11,10.9-25.2,11-36.1,0.1
		c-48.5-48.2-97-96.4-145.5-144.6c-11.1-11-10-28,2.2-36.8c9.1-6.5,21.5-6,29.9,1.4c1.8,1.6,3.4,3.3,5.1,4.9
		c41.3,41.1,82.7,82.1,124,123.2C394.9,585.1,395.4,586,396.6,587.4z"/>
</g>
</svg>
