<?xml version="1.0" encoding="utf-8"?>
<!-- Generator: Adobe Illustrator 19.2.1, SVG Export Plug-In . SVG Version: 6.00 Build 0)  -->
<svg version="1.1" id="Capa_1" xmlns="http://www.w3.org/2000/svg" xmlns:xlink="http://www.w3.org/1999/xlink" x="0px" y="0px"
	 viewBox="0 0 612 612" style="enable-background:new 0 0 612 612;" xml:space="preserve">
<style type="text/css">
	.st0{fill:#FFFFFF;}
</style>
<g>
	<g id="Up">
		<g>
			<path class="st0" d="M432.3,334.4L327.1,219.7c-5.4-5.9-13.1-9.3-21.1-9.3s-15.7,3.4-21.2,9.3L179.7,334.4l0.1,0.1
				c-4.7,5.1-7.6,11.9-7.6,19.3c0,15.8,12.9,28.7,28.7,28.7c8.4,0,15.8-3.6,21.1-9.4l0.1,0.1l84-91.7l84,91.7l0.1-0.1
				c5.2,5.7,12.7,9.4,21.1,9.4c15.8,0,28.7-12.9,28.7-28.7C439.9,346.3,436.9,339.6,432.3,334.4L432.3,334.4z M306,0
				C137,0,0,137,0,306s137,306,306,306s306-137,306-306S475,0,306,0z M306,554.6C168.9,554.6,57.4,443.1,57.4,306
				S168.9,57.4,306,57.4S554.6,168.9,554.6,306S443.1,554.6,306,554.6z"/>
		</g>
	</g>
</g>
</svg>
